Results
version=1
nRows=26
nColumns=24
inDegrees=yes
endheader
time	pelvis_tilt	pelvis_list	pelvis_rotation	pelvis_tx	pelvis_ty	pelvis_tz	hip_flexion_r	hip_adduction_r	hip_rotation_r	knee_angle_r	ankle_angle_r	subtalar_angle_r	mtp_angle_r	hip_flexion_l	hip_adduction_l	hip_rotation_l	knee_angle_l	ankle_angle_l	subtalar_angle_l	mtp_angle_l	lumbar_extension	lumbar_bending	lumbar_rotation
      0.67950000	      1.41719801	     -0.77046034	     -4.74414988	     -0.54065164	      1.02389588	      0.34008527	      9.80105138	      4.42528008	     -3.04436267	    -13.65528990	     -3.90247733	    -12.84726326	     -6.11597764	     19.22950542	     -6.95299643	    -10.62961472	    -67.40555595	      3.20434748	    -12.71142743	     -0.97416861	    -14.69701958	      2.42733984	      8.04439946
      0.68366667	      1.34649623	     -0.72316387	     -4.76678694	     -0.53527640	      1.02473335	      0.34032537	      9.37419539	      4.38277332	     -2.98382746	    -13.32853427	     -3.80444538	    -12.82069222	     -6.12586505	     19.86724162	     -6.87660303	    -10.58011507	    -66.78329110	      3.32186195	    -12.73444345	     -0.96997446	    -14.62238818	      2.37549348	      8.10426578
      0.68783333	      1.27743775	     -0.67660459	     -4.78458432	     -0.52989209	      1.02553755	      0.34056466	      8.94387411	      4.33950885	     -2.93819779	    -12.99730299	     -3.71735447	    -12.78936662	     -6.13752039	     20.47712463	     -6.79953313	    -10.54320452	    -66.08030996	      3.41345235	    -12.77807213	     -0.96744200	    -14.54907806	      2.30753433	      8.18631591
      0.69200000	      1.22999586	     -0.63026442	     -4.80440641	     -0.52450766	      1.02633375	      0.34080759	      8.49069551	      4.29345052	     -2.89952402	    -12.66553634	     -3.63225311	    -12.75321963	     -6.15217574	     21.03381547	     -6.72056378	    -10.52531449	    -65.29443824	      3.48122817	    -12.84723412	     -0.96673402	    -14.49779671	      2.23434631	      8.28271380
      0.69616667	      1.18731064	     -0.58144963	     -4.83022390	     -0.51909012	      1.02711859	      0.34106705	      8.02817092	      4.24477563	     -2.85859801	    -12.32765238	     -3.55392890	    -12.71235827	     -6.16900073	     21.54855476	     -6.64061960	    -10.53197792	    -64.42012726	      3.52631059	    -12.93389985	     -0.96860806	    -14.44754173	      2.15558256	      8.38050030
      0.70033333	      1.22683861	     -0.50786691	     -4.88949917	     -0.51367236	      1.02802009	      0.34138222	      7.48138108	      4.16436443	     -2.79345140	    -11.99806430	     -3.41089989	    -12.61808218	     -6.21209634	     21.92394488	     -6.53725881	    -10.60256489	    -63.43586806	      3.51843462	    -13.11256967	     -0.97750453	    -14.49861707	      2.02529380	      8.53095588
      0.70450000	      1.18319871	     -0.47581958	     -4.92274256	     -0.50821559	      1.02870873	      0.34167909	      7.01360820	      4.13619373	     -2.74836104	    -11.64853329	     -3.38299926	    -12.60123533	     -6.23204627	     22.37713738	     -6.48429004	    -10.64657317	    -62.41848033	      3.55129548	    -13.14914226	     -0.98385890	    -14.44113224	      1.96230208	      8.60252463
      0.70866667	      1.33576533	     -0.40380273	     -5.02869334	     -0.50277065	      1.02973634	      0.34212275	      6.33488610	      4.05471185	     -2.63959721	    -11.29635282	     -3.25726237	    -12.49534717	     -6.30592880	     22.53930034	     -6.40146721	    -10.81166034	    -61.25180965	      3.51162533	    -13.29964495	     -1.01434278	    -14.61950563	      1.80962963	      8.78205288
      0.71283333	      1.36130416	     -0.36165643	     -5.08537058	     -0.49733087	      1.03044804	      0.34246980	      5.79887098	      4.01240709	     -2.56263607	    -10.95860502	     -3.17066181	    -12.49897766	     -6.36143619	     22.84618277	     -6.33755638	    -10.91388968	    -60.07151049	      3.49535088	    -13.44696872	     -1.04251558	    -14.65049277	      1.71268152	      8.89628582
      0.71700000	      1.40509890	     -0.31831027	     -5.16288273	     -0.49185927	      1.03115858	      0.34285310	      5.24385982	      3.96572093	     -2.48156904	    -10.62319567	     -3.08036750	    -12.44721954	     -6.42278091	     23.08945478	     -6.28117776	    -11.05700277	    -58.80858961	      3.46594859	    -13.54466489	     -1.07919850	    -14.69924782	      1.60806991	      9.02912426
      0.72116667	      1.46332760	     -0.28662299	     -5.24130591	     -0.48637924	      1.03182607	      0.34325095	      4.67428844	      3.93007632	     -2.40169591	    -10.29259347	     -2.99462421	    -12.41413702	     -6.48602817	     23.28760063	     -6.23834741	    -11.21449519	    -57.48403445	      3.42673828	    -13.64081116	     -1.12257140	    -14.76159902	      1.51153817	      9.15785621
      0.72533333	      1.50188372	     -0.26545834	     -5.32328409	     -0.48088606	      1.03239759	      0.34365253	      4.13234739	      3.90612385	     -2.33056555	     -9.97621393	     -2.90160800	    -12.38015597	     -6.54674858	     23.47840759	     -6.21093385	    -11.38860810	    -56.10188070	      3.38463043	    -13.71652064	     -1.16863452	    -14.79683253	      1.42668020	      9.28248400
      0.72950000	      1.58326677	     -0.26833929	     -5.42478200	     -0.47542848	      1.03297737	      0.34410093	      3.54484489	      3.90629447	     -2.21796317	     -9.65980543	     -2.80018110	    -12.31902607	     -6.63146492	     23.59019527	     -6.21643298	    -11.59275308	    -54.65768848	      3.30477590	    -13.73927936	     -1.23464242	    -14.90051243	      1.36382442	      9.43740933
      0.73366667	      1.49464799	     -0.31621973	     -5.44223027	     -0.46994645	      1.03314934	      0.34434382	      3.14888911	      3.96005153	     -2.19969239	     -9.37269694	     -2.73459284	    -12.32460477	     -6.65490797	     23.90563908	     -6.23856509	    -11.68305112	    -53.22376253	      3.27422695	    -13.71887524	     -1.25549804	    -14.79679391	      1.39260701	      9.49659812
      0.73783333	      1.61692655	     -0.29166160	     -5.58116016	     -0.46446286	      1.03369254	      0.34483042	      2.53357544	      3.92275950	     -2.05555356	     -9.08758078	     -2.57661167	    -12.25566762	     -6.72714692	     23.89131389	     -6.21378406	    -11.95968736	    -51.62567123	      3.19932706	    -13.81960028	     -1.31772670	    -14.94434620	      1.27516636	      9.66744632
      0.74200000	      1.67578850	     -0.34557778	     -5.67276796	     -0.45898240	      1.03401391	      0.34525505	      1.98198351	      3.97519378	     -1.95832906	     -8.80601399	     -2.46900354	    -12.24231009	     -6.82022079	     23.95017188	     -6.26906530	    -12.18384612	    -50.03166652	      3.13021857	    -13.73374417	     -1.38903514	    -15.01951187	      1.26830342	      9.82265462
      0.74616667	      1.55558418	     -0.45427904	     -5.67052957	     -0.45351074	      1.03389966	      0.34542109	      1.63513703	      4.09258269	     -1.95365821	     -8.56003371	     -2.36614959	    -12.24740151	     -6.84124362	     24.23371835	     -6.34171205	    -12.27053670	    -48.46231081	      3.08511008	    -13.63002087	     -1.40603001	    -14.89430667	      1.37985861	      9.86904015
      0.75033333	      1.63721770	     -0.50072610	     -5.81012704	     -0.44802291	      1.03414056	      0.34589465	      1.08062230	      4.13010749	     -1.80977574	     -8.32385283	     -2.19337922	    -12.18898000	     -6.93522541	     24.19061471	     -6.39441042	    -12.57231118	    -46.73446124	      3.00261126	    -13.57300298	     -1.46785417	    -14.99639503	      1.34643864	     10.04404376
      0.75450000	      1.49781670	     -0.64662530	     -5.79354327	     -0.44252558	      1.03384313	      0.34600003	      0.75994566	      4.28610442	     -1.81678247	     -8.10007349	     -2.07695821	    -12.20595253	     -6.95734512	     24.44794805	     -6.49245564	    -12.65830726	    -45.07745335	      2.97027153	    -13.40441886	     -1.48057950	    -14.85553496	      1.50702933	     10.08598190
      0.75866667	      1.50331151	     -0.73717853	     -5.88435381	     -0.43700169	      1.03378248	      0.34633443	      0.29583428	      4.37061147	     -1.72784316	     -7.89463656	     -1.91416059	    -12.16833508	     -7.02680529	     24.45663888	     -6.56430175	    -12.90929821	    -43.28670869	      2.94632025	    -13.23068834	     -1.50878551	    -14.85385783	      1.53859692	     10.18052494
      0.76283333	      1.35852394	     -0.94440247	     -5.85853151	     -0.43156894	      1.03330653	      0.34636881	     -0.00545077	      4.58991947	     -1.72307356	     -7.70634306	     -1.75926067	    -12.17270348	     -7.04607642	     24.68515643	     -6.71022666	    -12.97974865	    -41.55968661	      2.86206665	    -13.00982268	     -1.51560654	    -14.73464301	      1.78453027	     10.23213712
      0.76700000	      1.33310258	     -1.09886999	     -5.95390970	     -0.42606362	      1.03302746	      0.34669523	     -0.42776575	      4.74575296	     -1.60209495	     -7.53298373	     -1.56607272	    -12.14271403	     -7.14177494	     24.68790992	     -6.84917389	    -13.24266567	    -39.71405777	      2.83082603	    -12.71774139	     -1.52359937	    -14.72137337	      1.89901801	     10.35086989
      0.77116667	      1.15839162	     -1.33074305	     -5.90547263	     -0.42056973	      1.03235335	      0.34663380	     -0.69052616	      4.98890967	     -1.63253564	     -7.37045244	     -1.41073954	    -12.15861631	     -7.16108444	     24.90309873	     -6.99528863	    -13.29664120	    -37.91248434	      2.77461960	    -12.43419397	     -1.52219679	    -14.55163551	      2.17507506	     10.38537447
      0.77533333	      0.99611160	     -1.55789082	     -5.89826494	     -0.41502367	      1.03164867	      0.34666380	     -0.96301140	      5.22583466	     -1.62677741	     -7.22288214	     -1.21734626	    -12.12884950	     -7.20324109	     25.06060208	     -7.15372821	    -13.42099300	    -36.06240096	      2.77054775	    -12.05851144	     -1.50878082	    -14.38039830	      2.42605030	     10.40145590
      0.77950000	      0.81687843	     -1.83264831	     -5.85160845	     -0.40954626	      1.03081030	      0.34655393	     -1.20636360	      5.51212652	     -1.64823462	     -7.10054006	     -1.02203922	    -12.13216434	     -7.22128753	     25.24239309	     -7.33037027	    -13.47926754	    -34.20537193	      2.67853689	    -11.70750728	     -1.49990015	    -14.21510753	      2.75436651	     10.42211592
      0.78366667	      0.63458841	     -2.10869720	     -5.82509812	     -0.40398471	      1.02990654	      0.34650477	     -1.45387070	      5.80018536	     -1.65366771	     -6.97460954	     -0.80817139	    -12.09816452	     -7.25971487	     25.39477979	     -7.51935991	    -13.58419902	    -32.32710374	      2.67288078	    -11.23808717	     -1.47022220	    -14.02670148	      3.07043430	     10.41662612
